<svg viewBox="109.7 95 410.44802 353.140075" fill="none" xmlns="http://www.w3.org/2000/svg" width="512" height="512"><path d="M206.075 394.284C203.958 400.396 200.31 403.993 195.132 405.075C184.422 407.308 177.629 401.525 174.753 387.725C174.273 385.498 173.983 383.235 173.887 380.959C175.891 378.96 178.653 377.577 182.161 376.841C187.102 375.817 191.749 377.577 195.96 382.093L196.33 382.496C199.054 380.246 201.859 377.795 204.719 375.125C207.443 372.581 209.976 370.07 212.313 367.624L217.651 354.638L217.466 354.572C214.871 350.897 211.516 347.822 207.628 345.557C200.096 341.199 191.447 340.032 181.682 342.054C169.378 344.626 160.076 350.915 153.775 360.924C151.26 364.884 149.419 369.234 148.328 373.796C142.521 383.449 140.794 394.24 143.229 405.892C145.729 417.876 151.945 427.295 161.652 433.832C168.549 438.553 176.717 441.069 185.076 441.044C188.422 441.023 191.757 440.658 195.028 439.954C204.953 437.884 212.634 433.162 217.858 425.922C220.652 422.054 223.191 414.842 223.921 410.484L224.003 410.005H223.943C225.523 407.24 226.621 404.226 227.189 401.093L206.075 394.284ZM215.946 356.043L211.806 367.483H211.746C207.11 371.568 202.148 375.899 197.463 380.012L201.276 368.986L215.946 356.043ZM186.53 363.915C191.444 362.891 195.996 364.468 200.187 368.648L196.047 380.594C191.738 376.318 186.988 374.684 181.916 375.741C178.969 376.272 176.204 377.543 173.881 379.434C174.023 370.844 178.228 365.652 186.546 363.915H186.53ZM216.926 425.29C211.877 432.295 204.425 436.866 194.783 438.909C182.799 441.403 171.871 439.388 162.257 432.916C152.789 426.554 146.748 417.391 144.308 405.68C142.21 395.471 143.3 385.971 147.658 377.315C146.914 382.672 147.124 388.118 148.279 393.401C150.763 405.313 156.824 414.508 166.462 420.987C176.267 427.571 187.253 429.594 199.419 427.055C209.246 425.003 216.741 420.4 221.905 413.246C222.052 413.039 222.189 412.832 222.325 412.63C221.284 416.656 219.176 422.191 216.943 425.29H216.926Z" fill="#4670CF"></path><path d="M185.076 441.567C176.612 441.588 168.341 439.043 161.353 434.267C151.515 427.654 145.24 418.143 142.707 406.001C140.261 394.256 141.982 383.356 147.833 373.595C148.944 369.005 150.801 364.629 153.329 360.641C159.681 350.552 169.181 344.13 181.573 341.542C191.422 339.489 200.28 340.687 207.895 345.105C211.796 347.381 215.171 350.457 217.798 354.131L212.683 368.48C210.228 370.804 207.686 373.15 205.057 375.518C202.232 378.06 199.435 380.516 196.668 382.888L196.281 383.226L195.595 382.452C191.52 378.094 187.043 376.367 182.293 377.359C179.024 378.045 176.366 379.325 174.443 381.172C174.545 383.335 174.82 385.486 175.265 387.605C178.104 401.185 184.564 406.725 195.023 404.546C199.98 403.512 203.532 399.998 205.58 394.098L205.749 393.614L227.756 400.695L227.68 401.147C227.13 404.24 226.076 407.221 224.559 409.972L224.461 410.55C223.682 415.044 221.1 422.316 218.283 426.222C212.983 433.57 205.21 438.364 195.137 440.461C191.83 441.173 188.459 441.544 185.076 441.567ZM148.241 374.973C142.93 384.288 141.415 394.643 143.736 405.783C146.215 417.647 152.337 426.941 161.936 433.396C168.753 438.052 176.82 440.535 185.076 440.515C188.385 440.502 191.683 440.15 194.92 439.464C204.725 437.421 212.286 432.769 217.433 425.639C220.108 421.924 222.592 414.989 223.377 410.593L222.832 412.772C221.813 416.716 219.672 422.414 217.384 425.606C212.248 432.72 204.692 437.361 194.914 439.404C182.81 441.932 171.73 439.889 161.99 433.341C152.403 426.903 146.291 417.626 143.818 405.778C141.672 395.488 142.81 385.835 147.195 377.092L148.241 374.973ZM146.787 380.491C143.638 388.226 142.973 396.642 144.836 405.549C147.25 417.119 153.214 426.173 162.568 432.453C172.062 438.838 182.87 440.82 194.707 438.358C204.218 436.375 211.561 431.87 216.535 424.974C218.261 422.583 219.907 418.693 221.018 415.267C215.859 421.531 208.641 425.66 199.539 427.562C187.277 430.122 176.05 428.052 166.185 421.417C156.472 414.88 150.278 405.5 147.773 393.499C146.856 389.228 146.524 384.852 146.787 380.491V380.491ZM148.622 374.319L148.176 377.391C147.444 382.686 147.651 388.069 148.786 393.292C151.232 405.01 157.278 414.183 166.762 420.529C176.388 427.001 187.342 429.016 199.316 426.521C208.968 424.511 216.426 419.93 221.486 412.903C221.579 412.777 221.661 412.652 221.748 412.521L223.279 410.288H223.202L223.518 409.743C224.971 407.162 226.003 404.365 226.574 401.458L206.419 394.948C204.24 400.94 200.465 404.514 195.263 405.598C184.264 407.897 177.199 401.921 174.258 387.839C173.776 385.585 173.482 383.295 173.381 380.992V380.763L173.544 380.6C175.625 378.519 178.496 377.086 182.08 376.34C187.206 375.251 192.005 377.081 196.341 381.717L200.852 368.687L216.84 354.572C214.319 351.091 211.098 348.176 207.383 346.015C200.002 341.728 191.395 340.567 181.78 342.572C169.682 345.094 160.405 351.364 154.217 361.202C151.734 365.115 149.913 369.41 148.829 373.916L148.769 374.069C148.748 374.15 148.671 374.237 148.622 374.319V374.319ZM196.319 381.706C196.326 381.717 196.335 381.727 196.347 381.733V381.766C199.021 379.44 201.712 377.075 204.349 374.733C206.31 372.995 208.336 371.187 210.39 369.335C208.424 371.067 206.408 372.832 204.398 374.597C202.175 376.547 199.953 378.492 197.79 380.398L196.319 381.706ZM201.729 369.28L198.607 378.29L203.722 373.807C206.31 371.535 208.903 369.269 211.392 367.069L214.753 357.808L201.729 369.28ZM196.281 381.559L195.688 380.97C191.509 376.825 186.917 375.24 182.031 376.258C179.163 376.775 176.473 378.012 174.214 379.854L173.332 380.611V379.445C173.479 370.582 177.88 365.184 186.405 363.403C191.477 362.346 196.211 363.985 200.541 368.273L200.775 368.507L196.281 381.559ZM184.891 374.902C188.764 374.902 192.43 376.493 195.829 379.647L199.588 368.79C195.611 364.933 191.259 363.473 186.65 364.432C178.915 366.066 174.911 370.599 174.443 378.334C176.653 376.786 179.167 375.728 181.819 375.229C182.83 375.014 183.862 374.904 184.896 374.902H184.891Z" fill="#4670CF"></path><path d="M290.575 321.175L267.266 326.05L267.004 325.957L266.945 326.121H266.896V326.197L262.107 339.429L265.615 356.441L253.086 359.061L247.094 330.255L223.567 335.158L218.038 348.411L235.252 429.637L234.963 430.427L259.509 425.497L264.444 411.879L264.079 411.743L259.819 391.348L259.749 390.993L271.858 388.515L278.825 420.355L278.542 421.139L302.423 416.384L307.326 402.809L307.593 402.754L290.575 321.175ZM263.289 339.51L267.353 328.289L272.909 354.921L266.732 356.207L263.289 339.51ZM219.204 348.493L223.66 336.188L240.356 416.237L240.133 416.155L235.976 427.633L219.204 348.493ZM258.665 424.522L236.701 428.929L241.162 416.612L262.886 412.08L262.99 412.587L258.665 424.522ZM259.52 389.882L257.199 378.775L276.423 374.766L271.858 387.366L259.52 389.882ZM272.86 387.894L277.256 375.763L283.75 406.883H283.695L279.528 418.388L272.86 387.894ZM301.573 415.387L280.263 419.63L284.648 407.521L306.035 403.059L301.573 415.387Z" fill="#4670CF"></path><path d="M234.974 430.961C234.881 430.509 234.794 430.057 234.707 429.599L217.488 348.384L217.542 348.243L223.676 334.624H223.589H223.676L223.856 334.586L247.486 329.683L253.479 358.484L265.011 356.011L261.579 339.369L266.367 326.137L266.552 325.631L267.304 325.473L290.984 320.537C296.562 348.108 302.142 375.677 307.723 403.245L302.821 416.825L302.532 416.879L278.624 421.64L278.28 420.3L271.46 389.12L260.369 391.418L264.531 411.367C264.597 411.655 264.667 411.944 264.733 412.233L259.901 425.982L234.974 430.961ZM218.583 348.45L235.796 429.675V429.73L259.138 425.04L263.79 412.184L263.643 412.129L263.583 411.841L259.155 390.596L272.272 387.916L279.354 420.409V420.464L302.02 415.932L306.923 402.357H306.961L290.167 321.796L267.5 326.518L273.492 355.324L266.285 356.828L262.706 339.472L267.386 326.54H267.304L262.63 339.45L266.215 356.828L252.64 359.66L246.648 330.855L224.046 335.567L224.15 336.068L240.852 416.144L263.273 411.47L263.513 412.636L259.035 424.991L235.905 429.632L240.536 416.852L240.465 416.825L235.845 429.55L218.659 348.455L223.235 335.599L218.583 348.45ZM241.56 417.086L237.54 428.232L258.299 424.064L262.407 412.723L241.56 417.086ZM219.77 348.553L236.112 425.748L239.719 415.752L223.834 339.734L219.77 348.553ZM263.85 339.57L267.162 355.607L272.305 354.518L267.239 330.212L263.85 339.57ZM279.452 420.344L284.082 407.564H284.011L279.408 420.289L272.326 387.883L277.403 373.872L284.338 407.101L306.863 402.406L301.96 415.893L279.452 420.344ZM285.046 407.995L281.075 418.949L301.181 414.946L305.218 403.784L285.046 407.995ZM273.41 387.927L279.653 416.476L283.183 406.736L277.12 377.68L273.41 387.927ZM259.111 390.503L256.605 378.345L277.262 374.036L272.277 387.801L259.111 390.503ZM257.82 379.184L259.928 389.239L271.466 386.886L275.606 375.447L257.82 379.184Z" fill="#4670CF"></path><path d="M328.461 313.27L304.831 318.2L304.858 318.331L304.64 318.249L299.813 331.584L299.961 331.639H299.873L316.913 412.571L316.629 413.36L340.494 408.616L345.43 394.997L345.201 394.916L345.457 394.861L328.461 313.27ZM301.012 331.584L305.206 319.993L321.745 399.257L317.643 410.582L301.012 331.584ZM339.688 407.641L318.384 411.879L322.823 399.589L344.21 395.128L339.688 407.641Z" fill="#4670CF"></path><path d="M316.679 413.9L316.368 412.549L299.411 331.999L299.296 331.454L299.384 331.209L304.226 317.879V317.814H304.27L304.673 317.726H304.744L328.886 312.693L345.986 394.654L346.051 394.97L346.117 395.302L340.925 409.122L340.636 409.177L316.679 413.9ZM300.5 332.042L317.458 412.603V412.652L340.141 408.136L344.793 395.281H344.727L340.086 408.087L317.578 412.565L322.48 399.11L343.355 394.752L344.913 394.431L328.053 313.891L305.452 318.609L322.29 399.295L317.507 412.494L300.571 332.042H300.5ZM323.216 400.009L319.179 411.16L339.28 407.161L343.393 395.798L323.216 400.009ZM301.601 331.841L317.774 408.648L321.195 399.203L305.087 321.915L301.573 331.623V331.661L301.601 331.841ZM300.484 331.296H300.555L305.027 318.968L304.956 318.941L300.484 331.296Z" fill="#4670CF"></path><path d="M237.403 286.437V286.393L279.408 278.113C281.391 272.778 283.372 267.444 285.351 262.109L285.689 251.481L305.027 246.981L317.491 271.838L357.518 263.378L364.496 246.666L364.61 246.393L364.529 246.252L300.124 134.7L259.787 142.577L259.384 142.648L250.069 164.808L251.006 165.2L250.069 164.808L234.604 286.949L237.403 286.437ZM277.888 276.343L238.422 284.133L244.621 270.051L282.835 262.594L277.888 276.343ZM306.683 245.756L312.283 231.342L322.448 253.469L317.256 266.837L306.683 245.756ZM355.807 261.657L318.428 269.397L324.213 254.499L362.083 247.107L355.807 261.657ZM311.684 230.007L311.537 229.948H311.651L311.684 230.007ZM287.852 177.489L299.095 202.269L287.111 204.606L287.852 177.489ZM310.594 230.133L304.826 244.939L285.76 249.378L286.223 234.883L310.594 230.133ZM251.964 165.462L259.002 148.771L244.115 266.505L237.322 281.6L251.964 165.462Z" fill="#4670CF"></path><path d="M409.132 356.392C407.011 362.507 403.363 366.104 398.188 367.183C387.482 369.416 380.689 363.633 377.809 349.833C377.332 347.608 377.043 345.347 376.943 343.073C378.948 341.068 381.71 339.685 385.218 338.955C390.159 337.925 394.805 339.69 399.016 344.206L399.392 344.604C402.174 342.185 404.968 339.73 407.775 337.239C410.481 334.835 413.156 332.44 415.799 330.054H415.881L420.708 316.719L420.522 316.653C417.93 312.977 414.574 309.903 410.684 307.643C403.152 303.285 394.504 302.118 384.738 304.141C372.438 306.705 363.136 312.993 356.832 323.005C354.316 326.965 352.476 331.315 351.384 335.877C345.577 345.53 343.856 356.321 346.285 367.973C348.791 379.957 355.001 389.381 364.708 395.912C371.604 400.636 379.774 403.152 388.132 403.125C391.477 403.113 394.812 402.757 398.085 402.062C408.01 399.992 415.69 395.27 420.915 388.03C423.72 384.141 426.253 376.901 426.999 372.57L427.081 372.091H427.026C428.586 369.326 429.665 366.316 430.219 363.19L409.132 356.392ZM419.002 318.157L414.862 329.596H414.808C410.167 333.687 405.204 338.018 400.52 342.125L404.333 331.105L419.002 318.157ZM389.576 326.05C394.489 325.026 399.041 326.602 403.232 330.778L399.092 342.73C394.783 338.454 390.033 336.814 384.962 337.876C382.006 338.408 379.235 339.685 376.911 341.586C377.052 332.957 381.274 327.779 389.576 326.05ZM419.978 387.42C414.922 394.425 407.449 399.001 397.829 401.038C385.844 403.533 374.95 401.518 365.302 395.046C355.835 388.684 349.794 379.516 347.353 367.809C345.229 357.617 346.351 348.101 350.687 339.483C349.944 344.838 350.153 350.282 351.302 355.564C353.786 367.475 359.849 376.672 369.491 383.155C379.297 389.735 390.28 391.756 402.442 389.218C412.273 387.169 419.771 382.566 424.935 375.408C425.082 375.207 425.213 375 425.354 374.793C424.314 378.764 422.206 384.299 419.978 387.398V387.42Z" fill="#4670CF"></path><path d="M388.105 403.68C379.64 403.701 371.368 401.154 364.381 396.376C354.543 389.762 348.274 380.251 345.735 368.109C343.289 356.365 345.011 345.464 350.861 335.703C351.973 331.113 353.832 326.736 356.363 322.749C362.709 312.66 372.215 306.238 384.602 303.65C394.451 301.597 403.308 302.795 410.924 307.213C412.535 308.185 414.07 309.277 415.516 310.481C417.671 312.264 419.629 314.273 421.355 316.474C419.54 321.216 417.724 325.957 415.908 330.697C413.288 333.061 410.668 335.409 408.118 337.675C405.329 340.148 402.507 342.626 399.724 345.045L399.343 345.377L398.607 344.571C394.527 340.213 390.049 338.492 385.299 339.478C382.031 340.164 379.373 341.45 377.45 343.291C377.56 345.457 377.844 347.61 378.299 349.73C379.705 356.484 382.113 361.327 385.381 364.127C388.649 366.927 392.898 367.75 398.062 366.677C403.02 365.642 406.571 362.123 408.614 356.223L408.783 355.738L430.796 362.82L430.714 363.266C430.167 366.359 429.114 369.341 427.598 372.091L427.495 372.669C426.716 377.168 424.134 384.44 421.317 388.346C416.017 395.695 408.244 400.483 398.171 402.586C394.862 403.294 391.489 403.661 388.105 403.68V403.68ZM351.275 337.081C345.958 346.39 344.444 356.751 346.765 367.891C349.243 379.761 355.366 389.049 364.97 395.504C371.783 400.165 379.85 402.649 388.105 402.629C391.415 402.615 394.715 402.263 397.953 401.578C407.759 399.535 415.32 394.883 420.462 387.752C423.148 384.021 425.621 377.103 426.421 372.707L425.877 374.886C424.858 378.83 422.717 384.533 420.429 387.725C415.298 394.839 407.737 399.481 397.964 401.518C385.855 404.045 374.775 402.008 365.035 395.46C355.453 389.016 349.336 379.745 346.863 367.897C344.716 357.601 345.855 347.948 350.24 339.205L351.275 337.081ZM349.821 342.599C346.667 350.334 346.007 358.751 347.865 367.657C350.284 379.227 356.249 388.281 365.596 394.567C375.096 400.946 385.904 402.934 397.736 400.472C407.247 398.484 414.59 393.984 419.569 387.088C421.295 384.691 422.941 380.802 424.052 377.381C418.893 383.64 411.675 387.774 402.573 389.675C390.311 392.236 379.089 390.166 369.219 383.531C359.506 376.994 353.312 367.608 350.812 355.613C349.888 351.341 349.555 346.962 349.821 342.599V342.599ZM351.651 336.433L351.204 339.505C350.475 344.799 350.683 350.179 351.82 355.4C354.26 367.123 360.307 376.291 369.796 382.637C379.422 389.103 390.371 391.119 402.35 388.629C411.997 386.614 419.46 382.038 424.515 375.011C424.602 374.891 424.684 374.771 424.765 374.646L426.318 372.396H426.236L426.547 371.852C428.001 369.27 429.032 366.473 429.603 363.566L409.447 357.029C407.268 363.021 403.493 366.589 398.286 367.673C392.789 368.823 388.225 367.886 384.711 364.901C381.197 361.916 378.719 356.904 377.286 349.92C376.801 347.665 376.508 345.372 376.409 343.068V342.839L376.573 342.675C378.653 340.6 381.53 339.167 385.114 338.416C390.24 337.326 395.034 339.156 399.375 343.792L403.886 330.762L419.879 316.664C417.357 313.183 414.136 310.266 410.423 308.101C403.041 303.819 394.435 302.654 384.82 304.658C372.716 307.186 363.444 313.45 357.251 323.288C354.768 327.201 352.947 331.497 351.863 336.002L351.803 336.155L351.651 336.433ZM399.326 343.819H399.353V343.847C402.006 341.537 404.697 339.173 407.35 336.814C409.344 335.049 411.376 333.235 413.413 331.399C411.425 333.153 409.387 334.935 407.35 336.721C405.144 338.655 402.938 340.589 400.813 342.479L399.326 343.819ZM404.774 331.388L401.658 340.404C403.325 338.933 405.024 337.446 406.724 335.959C409.328 333.676 411.931 331.394 414.443 329.177L417.798 319.916L404.774 331.388ZM420.026 316.888L415.374 329.732C415.402 329.712 415.428 329.688 415.45 329.662L415.494 329.629L420.026 316.958C420.016 316.934 420.006 316.911 419.994 316.888H420.026ZM399.326 343.667L398.732 343.078C394.554 338.933 389.957 337.348 385.081 338.367C382.214 338.886 379.525 340.123 377.264 341.962L376.376 342.719V341.553C376.518 332.69 380.925 327.292 389.45 325.511L389.554 326.055L389.45 325.511C394.516 324.454 399.255 326.094 403.581 330.413L403.815 330.648L399.326 343.667ZM387.936 337.016C391.809 337.016 395.475 338.601 398.874 341.76L402.638 330.898C398.656 327.047 394.304 325.582 389.695 326.54C381.96 328.174 377.962 332.707 377.488 340.442C379.698 338.896 382.213 337.837 384.863 337.337C385.87 337.125 386.896 337.017 387.925 337.016H387.936Z" fill="#4670CF"></path><path d="M519.474 362.444L502.456 280.87L479.147 285.739L478.88 285.647L478.825 285.81H478.776V285.887L473.983 299.124L477.491 316.136L464.962 318.751L458.97 289.945L435.442 294.847L435.268 294.788L429.93 308.106L447.143 389.332L446.86 390.122L471.373 385.219L476.314 371.601L475.944 371.47L471.717 351.108L471.629 350.683L483.728 348.215L490.69 380.05L490.407 380.834L514.293 376.079L519.196 362.509L519.474 362.444ZM475.165 299.2L479.228 287.978L484.785 314.611L478.607 315.902L475.165 299.2ZM431.079 308.188L435.535 295.882L452.237 375.926L452.013 375.844L447.852 387.327L431.079 308.188ZM470.545 384.212L448.582 388.624L453.043 376.307L474.762 371.775L474.865 372.276L470.545 384.212ZM471.395 349.577L469.08 338.47L488.298 334.461L483.761 347.06L471.395 349.577ZM484.741 347.583L489.132 335.458L495.625 366.578H495.576L491.387 378.061L484.741 347.583ZM513.449 375.076L492.144 379.32L496.529 367.216L517.91 362.754L513.449 375.076Z" fill="#4670CF"></path><path d="M446.914 390.639C446.805 390.193 446.691 389.746 446.582 389.294L429.368 308.074L429.417 307.932L435.464 294.314H435.556L435.731 294.275L459.361 289.373L465.353 318.179L476.886 315.7L473.454 299.058C475.023 294.497 476.59 289.936 478.155 285.375L478.427 285.32L479.184 285.162L502.859 280.221L520.094 362.852L514.685 376.531L514.396 376.591L490.368 381.373C490.292 380.921 490.221 380.464 490.144 380.012L483.324 348.825L472.25 351.108C473.83 357.823 475.411 364.541 476.995 371.263L471.776 385.65L446.914 390.639ZM430.458 308.145L447.671 389.37V389.419L471.008 384.734L475.665 371.873L475.518 371.819L475.458 371.536L471.024 350.291L484.147 347.616L491.256 380.11V380.159L513.895 375.621L518.798 362.052H518.836L502.047 281.491L479.402 286.213L485.394 315.019L478.187 316.523L474.609 299.162L479.293 286.235H479.206L474.532 299.14L478.117 316.523L464.547 319.35L458.555 290.55L435.954 295.261L452.759 375.812L475.175 371.132L475.415 372.304L470.942 384.653L447.775 389.305L452.4 376.525H452.334L447.72 389.239L430.534 308.15L435.18 295.321L435.11 295.294L430.458 308.145ZM453.435 376.781L449.393 387.948L470.147 383.776L474.254 372.44L453.435 376.781ZM431.645 308.248L447.987 385.443L451.621 375.447C446.282 349.851 440.942 324.249 435.6 298.639L431.645 308.248ZM475.731 299.265L479.037 315.302L484.185 314.213L479.114 289.907L475.731 299.265ZM491.332 380.033L495.962 367.254H495.891L491.283 379.979L484.201 347.578L489.273 333.562L496.207 366.791L518.732 362.09L513.83 375.577L513.541 375.637L491.332 380.033ZM496.921 367.69L492.955 378.639L513.056 374.635L517.098 363.479L496.921 367.69ZM485.285 347.622L491.534 376.166L495.058 366.426L488.995 337.364L485.285 347.622ZM470.986 350.198L468.458 338.061L489.115 333.753L484.131 347.518L470.986 350.198ZM469.7 338.879L471.803 348.956L483.341 346.603L487.481 335.163L469.7 338.879Z" fill="#4670CF"></path><path d="M492.885 219.282L492.825 219.227L434.538 162.803L462.064 103.285L421.116 111.151L403.848 148.646L397.523 115.678L363.352 122.215L363.385 122.384L356.096 143.018L378.877 260.229L379.269 262.223L412.738 254.689L420.146 233.695V233.63L418.452 224.8L443.548 248.332L486.037 240.641L492.716 219.701L492.885 219.282ZM358.193 143.198L364.142 126.35L385.822 239.339L379.928 256.645L358.193 143.198ZM411.196 252.979L381.067 259.761L387.8 239.862L417.847 234.093L411.196 252.979ZM417.815 221.428L414.797 205.69L418.392 197.824L451.076 227.028L444.43 245.886L417.815 221.428ZM484.425 238.968L446.549 245.821L452.988 227.572L489.894 221.82L484.425 238.968Z" fill="#4670CF"></path><path d="M226.612 237.803C224.008 224.453 216.774 216.527 204.91 214.025C210.357 207.488 211.919 198.315 209.595 186.505C205.32 164.588 188.156 156.562 158.101 162.427L115.894 170.664L109.646 187.273L133.495 308.646V308.782L133.658 308.749C142.194 307.36 150.823 305.829 159.321 304.201C180.228 300.191 186.236 298.65 188.192 298.149C200.933 294.88 207.328 293.246 210.755 291.023C222.543 283.397 226.225 267.316 226.955 253.104C227.838 248.528 227.723 243.428 226.612 237.803ZM192.076 244.1C192.642 247.005 192.352 249.514 191.204 251.628C190.229 247.526 188.121 244.77 184.771 243.212C181.241 241.578 176.3 241.349 170.063 242.564L166.119 243.332L164.545 235.231L170.537 234.066C183.109 231.611 190.289 234.954 192.076 244.094V244.1ZM165.52 211.111L160.732 212.2L157.817 197.28L159.637 196.926C168.32 195.231 172.983 197.574 174.296 204.301C174.383 204.753 174.454 205.2 174.513 205.63C172.857 208.336 169.86 210.163 165.52 211.111ZM189.259 254.096C187.508 255.748 185.325 256.871 182.962 257.337L169.393 259.984L166.446 244.884L170.384 244.116C176.268 242.967 180.887 243.146 184.106 244.661C187.173 246.088 189.042 248.73 189.826 252.734C189.87 252.968 189.908 253.202 189.94 253.426C189.725 253.664 189.498 253.892 189.259 254.107V254.096ZM158.88 187.011C168.543 185.123 174.132 188.055 175.647 195.809C176.188 198.187 176.177 200.658 175.614 203.032C173.86 196.185 168.402 193.603 159.337 195.368L156.875 195.847L155.284 187.687L158.88 187.011ZM111.749 187.453L116.69 174.733L139.024 289.302L134.415 303.231C126.865 264.638 119.31 226.045 111.749 187.453V187.453ZM209.687 289.318C206.539 291.356 200.247 292.968 187.718 296.182C180.244 298.1 172.286 299.707 158.95 302.207C152.604 303.4 144.825 304.811 135.897 306.32L140.832 290.31L191.493 280.423C208.198 277.154 219.093 270.745 224.177 261.194C222.608 272.448 218.604 283.561 209.687 289.318V289.318Z" fill="#4670CF"></path><path d="M345.887 142.555L341.802 146.129C339.305 148.322 336.099 149.539 332.776 149.555C328.997 149.564 325.363 148.098 322.648 145.47C319.933 142.841 318.35 139.257 318.237 135.479C318.172 133.426 318.562 131.384 319.381 129.501C320.199 127.617 321.425 125.938 322.97 124.585L327.361 121.131C325.78 122.303 324.494 123.829 323.608 125.587C322.73 127.567 322.289 129.713 322.317 131.879C322.43 135.657 324.014 139.242 326.73 141.871C329.446 144.5 333.081 145.965 336.861 145.955C340.182 145.949 343.388 144.741 345.887 142.555V142.555Z" fill="#F6B41F"></path><path d="M345.887 142.555L341.802 146.129C339.305 148.322 336.099 149.539 332.776 149.555C328.997 149.564 325.363 148.098 322.648 145.47C319.933 142.841 318.35 139.257 318.237 135.479C318.172 133.426 318.562 131.384 319.381 129.501C320.199 127.617 321.425 125.938 322.97 124.585L327.361 121.131C325.78 122.303 324.494 123.829 323.608 125.587C322.688 127.553 322.246 129.709 322.317 131.879C322.704 139.292 330.57 145.993 336.861 145.955C338.663 145.907 340.444 145.547 342.123 144.892C343.495 144.32 344.766 143.531 345.887 142.555V142.555Z" fill="#F6B41F"></path><path d="M334.71 118.968C338.49 118.962 342.123 120.432 344.836 123.064C347.549 125.696 349.129 129.282 349.238 133.061C349.3 134.911 348.99 136.754 348.328 138.483C347.665 140.211 346.663 141.789 345.38 143.124C344.098 144.458 342.56 145.522 340.86 146.252C339.159 146.983 337.329 147.365 335.478 147.376C331.698 147.384 328.064 145.917 325.348 143.288C322.632 140.658 321.048 137.073 320.934 133.295C320.872 131.443 321.182 129.598 321.845 127.868C322.508 126.137 323.512 124.558 324.796 123.222C326.081 121.887 327.62 120.822 329.322 120.092C331.025 119.361 332.857 118.979 334.71 118.968Z" fill="#F9D935"></path><path d="M334.655 122.052C337.649 122.047 340.527 123.211 342.676 125.296C344.826 127.38 346.077 130.22 346.165 133.213C346.213 134.677 345.966 136.136 345.441 137.504C344.916 138.871 344.122 140.119 343.107 141.175C342.091 142.231 340.875 143.073 339.529 143.652C338.183 144.23 336.735 144.534 335.271 144.544C332.276 144.551 329.396 143.39 327.244 141.308C325.092 139.226 323.836 136.386 323.744 133.393C323.696 131.927 323.942 130.466 324.468 129.096C324.994 127.727 325.789 126.477 326.806 125.419C327.823 124.362 329.041 123.52 330.39 122.941C331.738 122.363 333.188 122.06 334.655 122.052V122.052Z" fill="#F6B41F"></path><path d="M353.885 175.61L349.799 179.183C347.298 181.369 344.094 182.581 340.773 182.599C336.993 182.608 333.359 181.142 330.643 178.514C327.927 175.885 326.343 172.301 326.228 168.523C326.165 166.47 326.557 164.429 327.375 162.546C328.194 160.662 329.419 158.983 330.962 157.628L335.358 154.175C333.771 155.354 332.483 156.889 331.599 158.658C330.724 160.638 330.286 162.784 330.314 164.949C330.429 168.726 332.012 172.31 334.726 174.938C337.441 177.567 341.074 179.033 344.853 179.025C348.176 179.009 351.382 177.797 353.885 175.61V175.61Z" fill="#F6B41F"></path><path d="M353.885 175.61L349.799 179.183C347.298 181.369 344.094 182.581 340.773 182.599C336.993 182.608 333.359 181.142 330.643 178.514C327.927 175.885 326.343 172.301 326.228 168.523C326.165 166.47 326.557 164.429 327.375 162.546C328.194 160.662 329.419 158.983 330.962 157.628L335.358 154.175C333.771 155.354 332.483 156.889 331.599 158.658C330.682 160.625 330.241 162.78 330.314 164.949C330.695 172.358 338.567 179.064 344.858 179.025C346.66 178.967 348.438 178.598 350.115 177.936C351.488 177.368 352.761 176.583 353.885 175.61V175.61Z" fill="#F6B41F"></path><path d="M342.701 152.023C346.481 152.017 350.114 153.485 352.827 156.116C355.541 158.747 357.123 162.332 357.235 166.11C357.294 167.958 356.983 169.8 356.32 171.527C355.656 173.253 354.653 174.829 353.371 176.162C352.088 177.495 350.552 178.557 348.852 179.287C347.153 180.016 345.324 180.398 343.474 180.409C339.695 180.418 336.061 178.952 333.345 176.324C330.629 173.695 329.045 170.111 328.93 166.333C328.869 164.483 329.179 162.639 329.843 160.91C330.506 159.182 331.51 157.604 332.793 156.27C334.077 154.936 335.615 153.873 337.317 153.143C339.019 152.414 340.849 152.033 342.701 152.023V152.023Z" fill="#F9D935"></path><path d="M342.674 155.101C345.67 155.095 348.55 156.259 350.7 158.345C352.851 160.43 354.103 163.273 354.19 166.268C354.237 167.732 353.991 169.191 353.465 170.558C352.94 171.926 352.146 173.174 351.131 174.23C350.116 175.286 348.899 176.128 347.553 176.706C346.208 177.285 344.76 177.588 343.295 177.598C340.294 177.614 337.405 176.456 335.245 174.372C333.086 172.288 331.826 169.442 331.735 166.442C331.687 164.974 331.934 163.51 332.462 162.139C332.99 160.768 333.787 159.516 334.807 158.459C335.827 157.401 337.049 156.559 338.4 155.982C339.751 155.406 341.204 155.106 342.674 155.101V155.101Z" fill="#F6B41F"></path><path d="M319.855 304.484L315.769 308.057C313.265 310.252 310.051 311.465 306.721 311.473C302.941 311.483 299.306 310.018 296.59 307.389C293.873 304.76 292.29 301.175 292.176 297.397C292.112 295.344 292.504 293.302 293.324 291.418C294.143 289.534 295.37 287.855 296.916 286.502L301.306 283.043C299.721 284.222 298.435 285.758 297.553 287.526C296.675 289.506 296.235 291.652 296.262 293.818C296.375 297.596 297.959 301.181 300.675 303.81C303.392 306.439 307.026 307.904 310.807 307.894C314.135 307.886 317.349 306.675 319.855 304.484V304.484Z" fill="#F6B41F"></path><path d="M319.855 304.484L315.769 308.057C313.265 310.252 310.051 311.465 306.721 311.473C302.941 311.483 299.306 310.018 296.59 307.389C293.873 304.76 292.29 301.175 292.176 297.397C292.112 295.344 292.504 293.302 293.324 291.418C294.143 289.534 295.37 287.855 296.916 286.502L301.306 283.043C299.721 284.222 298.435 285.758 297.553 287.526C296.633 289.493 296.191 291.648 296.262 293.818C296.649 301.232 304.515 307.932 310.807 307.894C312.61 307.835 314.39 307.467 316.069 306.805C317.448 306.241 318.727 305.457 319.855 304.484Z" fill="#F6B41F"></path><path d="M308.677 280.897C312.458 280.892 316.092 282.364 318.805 284.998C321.518 287.631 323.097 291.22 323.205 295C323.263 296.847 322.951 298.688 322.286 300.413C321.622 302.138 320.619 303.712 319.337 305.043C318.054 306.374 316.518 307.435 314.819 308.163C313.12 308.892 311.293 309.272 309.445 309.283C305.665 309.293 302.03 307.828 299.313 305.199C296.597 302.57 295.014 298.985 294.9 295.207C294.84 293.356 295.151 291.512 295.815 289.784C296.479 288.055 297.483 286.477 298.767 285.143C300.052 283.81 301.59 282.746 303.292 282.017C304.994 281.288 306.825 280.907 308.677 280.897Z" fill="#F9D935"></path><path d="M308.617 283.98C311.612 283.974 314.491 285.138 316.641 287.222C318.792 289.307 320.044 292.148 320.132 295.142C320.18 296.606 319.933 298.065 319.408 299.432C318.883 300.799 318.089 302.048 317.074 303.104C316.059 304.16 314.842 305.002 313.496 305.58C312.151 306.159 310.703 306.462 309.238 306.472C306.242 306.479 303.362 305.318 301.209 303.234C299.057 301.151 297.802 298.31 297.711 295.316C297.663 293.851 297.909 292.39 298.435 291.021C298.96 289.653 299.755 288.403 300.772 287.346C301.788 286.29 303.006 285.447 304.353 284.869C305.701 284.291 307.151 283.989 308.617 283.98V283.98Z" fill="#F6B41F"></path></svg>